
<svg width="293px" height="490px" viewBox="0 0 293 490" version="1.1" xmlns="http://www.w3.org/2000/svg" xmlns:xlink="http://www.w3.org/1999/xlink">
    <!-- Generator: Sketch 46.2 (44496) - http://www.bohemiancoding.com/sketch -->
    <desc>Created with Sketch.</desc>
    <defs></defs>
    <g id="Page-1" stroke="none" stroke-width="1" fill="none" fill-rule="evenodd">
        <g id="Desktop" transform="translate(-345.000000, -270.000000)" fill-rule="nonzero">
            <g id="dollar-symbol" transform="translate(345.000000, 270.000000)">
                <path d="M234.43,219.944 C215.43,209.444 195.23,201.444 175.23,193.144 C163.63,188.344 152.53,182.744 142.73,174.944 C123.43,159.544 127.13,134.544 149.73,124.644 C156.13,121.844 162.83,120.944 169.63,120.544 C195.83,119.144 220.73,123.944 244.43,135.344 C256.23,141.044 260.13,139.244 264.13,126.944 C268.33,113.944 271.83,100.744 275.73,87.644 C278.33,78.844 275.13,73.044 266.83,69.344 C251.63,62.644 236.03,57.844 219.63,55.244 C198.23,51.944 198.23,51.844 198.13,30.344 C198.03,0.044 198.03,0.044 167.63,0.044 C163.23,0.044 158.83,-0.056 154.43,0.044 C140.23,0.444 137.83,2.944 137.43,17.244 C137.23,23.644 137.43,30.044 137.33,36.544 C137.23,55.544 137.13,55.244 118.93,61.844 C74.93,77.844 47.73,107.844 44.83,155.844 C42.23,198.344 64.43,227.044 99.33,247.944 C120.83,260.844 144.63,268.444 167.43,278.544 C176.33,282.444 184.83,286.944 192.23,293.144 C214.13,311.244 210.13,341.344 184.13,352.744 C170.23,358.844 155.53,360.344 140.43,358.444 C117.13,355.544 94.83,349.444 73.83,338.544 C61.53,332.144 57.93,333.844 53.73,347.144 C50.13,358.644 46.93,370.244 43.73,381.844 C39.43,397.444 41.03,401.144 55.93,408.444 C74.93,417.644 95.23,422.344 115.93,425.644 C132.13,428.244 132.63,428.944 132.83,445.744 C132.93,453.344 132.93,461.044 133.03,468.644 C133.13,478.244 137.73,483.844 147.63,484.044 C158.83,484.244 170.13,484.244 181.33,483.944 C190.53,483.744 195.23,478.744 195.23,469.444 C195.23,459.044 195.73,448.544 195.33,438.144 C194.83,427.544 199.43,422.144 209.63,419.344 C233.13,412.944 253.13,400.344 268.53,381.544 C311.33,329.544 295.03,253.444 234.43,219.944 Z" id="Shape" fill="#5477F5"></path>
                <path d="M193.43,224.944 C174.43,214.444 154.23,206.444 134.23,198.144 C122.63,193.344 111.53,187.744 101.73,179.944 C82.43,164.544 86.13,139.544 108.73,129.644 C115.13,126.844 121.83,125.944 128.63,125.544 C154.83,124.144 179.73,128.944 203.43,140.344 C215.23,146.044 219.13,144.244 223.13,131.944 C227.33,118.944 230.83,105.744 234.73,92.644 C237.33,83.844 234.13,78.044 225.83,74.344 C210.63,67.644 195.03,62.844 178.63,60.244 C157.23,56.944 157.23,56.844 157.13,35.344 C157.03,5.044 157.03,5.044 126.63,5.044 C122.23,5.044 117.83,4.944 113.43,5.044 C99.23,5.444 96.83,7.944 96.43,22.244 C96.23,28.644 96.43,35.044 96.33,41.544 C96.23,60.544 96.13,60.244 77.93,66.844 C33.93,82.844 6.73,112.844 3.83,160.844 C1.23,203.344 23.43,232.044 58.33,252.944 C79.83,265.844 103.63,273.444 126.43,283.544 C135.33,287.444 143.83,291.944 151.23,298.144 C173.13,316.244 169.13,346.344 143.13,357.744 C129.23,363.844 114.53,365.344 99.43,363.444 C76.13,360.544 53.83,354.444 32.83,343.544 C20.53,337.144 16.93,338.844 12.73,352.144 C9.13,363.644 5.93,375.244 2.73,386.844 C-1.57,402.444 0.03,406.144 14.93,413.444 C33.93,422.644 54.23,427.344 74.93,430.644 C91.13,433.244 91.63,433.944 91.83,450.744 C91.93,458.344 91.93,466.044 92.03,473.644 C92.13,483.244 96.73,488.844 106.63,489.044 C117.83,489.244 129.13,489.244 140.33,488.944 C149.53,488.744 154.23,483.744 154.23,474.444 C154.23,464.044 154.73,453.544 154.33,443.144 C153.83,432.544 158.43,427.144 168.63,424.344 C192.13,417.944 212.13,405.344 227.53,386.544 C270.33,334.544 254.03,258.444 193.43,224.944 Z" id="Shape" fill="#73A5FF"></path>
            </g>
        </g>
    </g>
</svg>