
<svg width="214px" height="215px" viewBox="0 0 214 215" version="1.1" xmlns="http://www.w3.org/2000/svg" xmlns:xlink="http://www.w3.org/1999/xlink">
    <!-- Generator: Sketch 46.2 (44496) - http://www.bohemiancoding.com/sketch -->
    <desc>Created with Sketch.</desc>
    <defs></defs>
    <g id="Page-1" stroke="none" stroke-width="1" fill="none" fill-rule="evenodd">
        <g id="Desktop" transform="translate(-379.000000, -379.000000)" fill-rule="nonzero">
            <g id="map-pin-marked" transform="translate(379.000000, 379.000000)">
                <path d="M163,56.0371338 C163,25.0863133 137.931311,0 106.997765,0 C76.0642187,0 51,25.0863133 51,56.0371338 C51,100.38104 106.997765,166 106.997765,166 C106.997765,166 163,100.152901 163,56.0371338 Z M79.3810816,52.6910992 C79.3810816,37.4236978 91.7500299,25.0505268 107.002235,25.0505268 C122.25444,25.0505268 134.623389,37.4236978 134.623389,52.6910992 C134.623389,67.9585006 122.25444,80.3316716 107.002235,80.3316716 C91.7500299,80.3316716 79.3810816,67.9585006 79.3810816,52.6910992 Z" id="Shape" fill="#5477F5"></path>
                <circle id="Oval" fill="#73A5FF" cx="106.5" cy="53.5" r="13.5"></circle>
                <path d="M138.687213,148 C134.118598,154.665678 129.831886,160.468792 126.261118,165.129348 C161.682424,167.278984 184.896893,174.996899 193.532962,180.736789 C183.415785,187.470208 153.355106,196.935832 107.002236,196.935832 C60.6538416,196.935832 30.5886877,187.465692 20.4715105,180.736789 C29.1075795,174.996899 52.3041501,167.2835 87.6896594,165.133864 C84.1099418,160.473308 79.8187552,154.67471 75.2456658,148.009032 C31.6581283,152.339916 0,165.35515 0,180.732273 C0,199.654489 47.9100466,215 107.002236,215 C166.098901,215 213.999998,199.663521 213.999998,180.732273 C214.008947,165.346118 182.315022,152.326368 138.687213,148 Z" id="Shape" fill="#73A5FF"></path>
            </g>
        </g>
    </g>
</svg>