
<svg width="512px" height="512px" viewBox="0 0 512 512" version="1.1" xmlns="http://www.w3.org/2000/svg" xmlns:xlink="http://www.w3.org/1999/xlink">
    <!-- Generator: Sketch 46.2 (44496) - http://www.bohemiancoding.com/sketch -->
    <desc>Created with Sketch.</desc>
    <defs></defs>
    <g id="Page-1" stroke="none" stroke-width="1" fill="none" fill-rule="evenodd">
        <g id="Desktop" transform="translate(-256.000000, -256.000000)" fill-rule="nonzero">
            <g id="contract" transform="translate(256.000000, 256.000000)">
                <path d="M389.513,87.422 C389.513,75.41 384.825,64.102 376.329,55.606 L333.907,13.184 C325.529,4.805 313.636,0 301.8,0 L299.222,0 L299.222,90 L389.514,90 L389.513,87.422 L389.513,87.422 Z" id="Shape" fill="#73A5FF"></path>
                <path d="M273.937,309.537 C276.808,300.821 281.818,292.706 288.351,286.129 L389.913,184.976 L389.913,120 L284.513,120 C276.222,120 270,113.291 270,105 L270,0 L45,0 C20.186,0 0,20.186 0,45 L0,467 C0,491.814 20.186,512 45,512 L344.513,512 C369.327,512 389.913,491.814 389.913,467 L389.913,355.049 L373.429,371.133 C366.75,377.754 358.928,382.573 350.109,385.518 L302.414,401.441 L295.148,401.837 C283.136,401.837 271.769,395.992 264.709,386.207 C257.707,376.466 255.803,363.839 259.611,352.428 L273.937,309.537 Z M75,270 L224.513,270 C232.804,270 239.513,276.709 239.513,285 C239.513,293.291 232.804,300 224.513,300 L75,300 C66.709,300 60,293.291 60,285 C60,276.709 66.709,270 75,270 Z M60,225 C60,216.709 66.709,210 75,210 L224.513,210 C232.804,210 239.513,216.709 239.513,225 C239.513,233.291 232.804,240 224.513,240 L75,240 C66.709,240 60,233.291 60,225 Z M60,345 C60,336.709 66.709,330 75,330 L224.513,330 C232.804,330 239.513,336.709 239.513,345 C239.513,353.291 232.804,360 224.513,360 L75,360 C66.709,360 60,353.291 60,345 Z M284.513,420 C292.804,420 299.513,426.709 299.513,435 C299.513,443.291 292.805,450 284.513,450 L194.513,450 C186.222,450 179.513,443.291 179.513,435 C179.513,426.709 186.222,420 194.513,420 L284.513,420 Z M75,180 C66.709,180 60,173.291 60,165 C60,156.709 66.709,150 75,150 L284.513,150 C292.804,150 299.513,156.709 299.513,165 C299.513,173.291 292.804,180 284.513,180 L75,180 Z" id="Shape" fill="#5477F5"></path>
                <path d="M301.111,322.808 L288.061,361.959 C286.105,367.824 291.686,373.403 297.551,371.444 L336.679,358.376 L301.111,322.808 Z" id="Shape" fill="#73A5FF"></path>
                <path d="M417.609,199.307 L318.82,298.096 L361.425,340.701 C383.753,318.369 427.198,274.918 460.209,241.907 L417.609,199.307 Z" id="Shape" fill="#73A5FF"></path>
                <path d="M503.185,156.284 C497.912,150.981 490.148,147.949 481.915,147.949 C473.682,147.949 465.919,150.981 460.616,156.299 L438.819,178.096 L481.417,220.694 C493.35,208.76 501.598,200.512 503.216,198.895 C514.933,187.16 514.932,168.046 503.185,156.284 Z" id="Shape" fill="#73A5FF"></path>
                <g id="Group" transform="translate(503.000000, 198.000000)" fill="#000000">
                    <path d="M0.215,0.896 C0.216,0.896 0.216,0.895 0.217,0.894 C0.255,0.856 0.272,0.839 0.303,0.808 C0.272,0.84 0.255,0.857 0.215,0.896 Z" id="Shape"></path>
                    <path d="M0.303,0.808 C0.351,0.76 0.407,0.704 0.436,0.675 C0.406,0.705 0.351,0.76 0.303,0.808 Z" id="Shape"></path>
                    <path d="M0.436,0.675 C0.533,0.578 0.535,0.576 0.436,0.675 L0.436,0.675 Z" id="Shape"></path>
                </g>
            </g>
        </g>
    </g>
</svg>