
<svg width="488px" height="479px" viewBox="0 0 488 479" version="1.1" xmlns="http://www.w3.org/2000/svg" xmlns:xlink="http://www.w3.org/1999/xlink">
    <!-- Generator: Sketch 46.2 (44496) - http://www.bohemiancoding.com/sketch -->
    <desc>Created with Sketch.</desc>
    <defs></defs>
    <g id="Page-1" stroke="none" stroke-width="1" fill="none" fill-rule="evenodd">
        <g id="waiting" fill-rule="nonzero">
            <path d="M450.652,163.878 C446.996,154.227 436.214,149.363 426.559,153.019 C416.911,156.666 412.048,167.455 415.702,177.107 C433.663,224.548 432.539,276.352 412.539,322.986 C392.008,370.851 354.069,407.86 305.702,427.192 C257.338,446.522 204.341,445.866 156.475,425.338 C142.595,419.386 129.641,411.972 117.756,403.27 C88.64,381.938 65.991,352.841 52.265,318.499 C32.932,270.136 33.586,217.141 54.115,169.268 C74.645,121.402 112.592,84.392 160.957,65.056 C207.236,46.56 257.753,46.415 303.961,64.421 L290.719,86.786 C287.081,92.93 289.877,97.03 296.921,95.89 L359.832,85.734 C366.88,84.595 370.7,78.152 368.306,71.427 L346.966,11.376 C344.576,4.65 339.642,4.167 336.009,10.314 L323.239,31.875 C266.636,8.105 204.151,7.545 147.08,30.357 C89.45,53.396 44.238,97.495 19.769,154.538 C-4.696,211.579 -5.481,274.74 17.559,332.374 C33.92,373.303 60.903,407.971 95.607,433.389 C109.765,443.76 125.212,452.594 141.744,459.681 C198.788,484.142 261.939,484.931 319.571,461.899 C377.211,438.865 422.42,394.757 446.883,337.711 C470.716,282.148 472.055,220.406 450.652,163.878 Z" id="Shape" fill="#5477F5"></path>
            <path d="M472.652,157.878 C468.996,148.227 458.214,143.363 448.559,147.019 C438.911,150.666 434.048,161.455 437.702,171.107 C455.663,218.548 454.539,270.352 434.539,316.986 C414.008,364.851 376.069,401.86 327.702,421.192 C279.338,440.522 226.341,439.866 178.475,419.338 C164.595,413.386 151.641,405.972 139.756,397.27 C110.64,375.938 87.991,346.841 74.265,312.499 C54.932,264.136 55.586,211.141 76.115,163.268 C96.645,115.402 134.592,78.392 182.957,59.056 C229.236,40.56 279.753,40.415 325.961,58.421 L312.719,80.786 C309.081,86.93 311.877,91.03 318.921,89.89 L381.832,79.734 C388.88,78.595 392.7,72.152 390.306,65.427 L368.966,5.376 C366.576,-1.35 361.642,-1.833 358.009,4.314 L345.239,25.875 C288.636,2.105 226.151,1.545 169.08,24.357 C111.45,47.396 66.238,91.495 41.769,148.538 C17.304,205.579 16.519,268.74 39.559,326.374 C55.92,367.303 82.903,401.971 117.607,427.389 C131.765,437.76 147.212,446.594 163.744,453.681 C220.788,478.142 283.939,478.931 341.571,455.899 C399.211,432.865 444.42,388.757 468.883,331.711 C492.716,276.148 494.055,214.406 472.652,157.878 Z" id="Shape-Copy" fill="#73A5FF"></path>
            <path d="M225.112,96.917 C216.76,96.917 209.984,103.688 209.984,112.047 L209.984,262.792 L347.856,334.064 C350.075,335.212 352.449,335.757 354.787,335.752 C360.265,335.752 365.552,332.773 368.242,327.569 C372.075,320.145 369.173,311.02 361.743,307.18 L240.247,244.37 L240.247,112.047 C240.246,103.688 233.475,96.917 225.112,96.917 Z" id="Shape" fill="#73A5FF"></path>
            <path d="M240.112,86.917 C231.76,86.917 224.984,93.688 224.984,102.047 L224.984,252.792 L362.856,324.064 C365.075,325.212 367.449,325.757 369.787,325.752 C375.265,325.752 380.552,322.773 383.242,317.569 C387.075,310.145 384.173,301.02 376.743,297.18 L255.247,234.37 L255.247,102.047 C255.246,93.688 248.475,86.917 240.112,86.917 Z" id="Shape-Copy-2" fill="#5477F5"></path>
        </g>
    </g>
</svg>