
<svg width="485px" height="393px" viewBox="0 0 485 393" version="1.1" xmlns="http://www.w3.org/2000/svg" xmlns:xlink="http://www.w3.org/1999/xlink">
    <!-- Generator: Sketch 46.2 (44496) - http://www.bohemiancoding.com/sketch -->
    <desc>Created with Sketch.</desc>
    <defs></defs>
    <g id="Page-1" stroke="none" stroke-width="1" fill="none" fill-rule="evenodd">
        <g id="building" fill-rule="nonzero">
            <path d="M131.012,392.372 L216.636,392.372 L216.636,304.815 L268.103,304.815 L268.103,392.372 L353.727,392.372 L353.727,0.366 L131.012,0.366 L131.012,392.372 Z M257.993,46.564 L309.459,46.564 L309.459,98.031 L257.993,98.031 L257.993,46.564 Z M257.993,129.279 L309.459,129.279 L309.459,180.746 L257.993,180.746 L257.993,129.279 Z M257.993,211.992 L309.459,211.992 L309.459,263.459 L257.993,263.459 L257.993,211.992 Z M175.279,46.564 L226.745,46.564 L226.745,98.031 L175.279,98.031 L175.279,46.564 Z M175.279,129.279 L226.745,129.279 L226.745,180.746 L175.279,180.746 L175.279,129.279 Z M175.279,211.992 L226.745,211.992 L226.745,263.459 L175.279,263.459 L175.279,211.992 Z" id="Shape" fill="#5477F5"></path>
            <path d="M373.719,35.482 L373.719,312.66 L406.784,312.66 L406.784,392.372 L484.738,392.372 L484.738,35.482 L373.719,35.482 Z M444.437,275.009 L397.58,275.009 L397.58,228.153 L444.436,228.153 L444.436,275.009 L444.437,275.009 Z M444.437,199.703 L397.58,199.703 L397.58,152.848 L444.436,152.848 L444.436,199.703 L444.437,199.703 Z M444.437,124.398 L397.58,124.398 L397.58,77.543 L444.436,77.543 L444.436,124.398 L444.437,124.398 Z" id="Shape" fill="#73A5FF"></path>
            <path d="M0,392.372 L77.954,392.372 L77.954,312.66 L111.019,312.66 L111.019,35.482 L0,35.482 L0,392.372 Z M40.302,77.543 L87.158,77.543 L87.158,124.398 L40.302,124.398 L40.302,77.543 Z M40.302,152.848 L87.158,152.848 L87.158,199.703 L40.302,199.703 L40.302,152.848 Z M40.302,228.151 L87.158,228.151 L87.158,275.006 L40.302,275.006 L40.302,228.151 Z" id="Shape" fill="#73A5FF"></path>
        </g>
    </g>
</svg>